<svg id="Layer_1" data-name="Layer 1" xmlns="http://www.w3.org/2000/svg" xmlns:xlink="http://www.w3.org/1999/xlink" viewBox="0 0 190.76 227.02"><defs><style>.cls-1,.cls-2,.cls-3,.cls-4,.cls-5{fill:#5c5c5c;}.cls-1,.cls-2,.cls-3,.cls-4{stroke-miterlimit:10;}.cls-1{stroke:url(#New_Gradient_Swatch_1);}.cls-2{stroke:url(#New_Gradient_Swatch_1-2);}.cls-3{stroke:url(#New_Gradient_Swatch_1-3);}.cls-4{stroke:url(#New_Gradient_Swatch_1-4);}.cls-5{font-size:36px;font-family:Microsoft-Yi-Baiti, Microsoft Yi Baiti;font-style:italic;}.cls-6{letter-spacing:-0.34em;}.cls-7{letter-spacing:-0.3em;}</style><linearGradient id="New_Gradient_Swatch_1" x1="232.79" y1="325.08" x2="254.63" y2="325.08" gradientUnits="userSpaceOnUse"><stop offset="0" stop-color="#f3bf6a"/><stop offset="0" stop-color="#d29f49"/><stop offset="0.26" stop-color="#ba8831"/><stop offset="0.69" stop-color="#faf286"/><stop offset="1" stop-color="#905e25"/></linearGradient><linearGradient id="New_Gradient_Swatch_1-2" x1="232.79" y1="225.23" x2="254.63" y2="225.23" xlink:href="#New_Gradient_Swatch_1"/><linearGradient id="New_Gradient_Swatch_1-3" x1="193.03" y1="291.43" x2="214.86" y2="291.43" xlink:href="#New_Gradient_Swatch_1"/><linearGradient id="New_Gradient_Swatch_1-4" x1="272.56" y1="258.88" x2="294.4" y2="258.88" xlink:href="#New_Gradient_Swatch_1"/></defs><path class="cls-1" d="M233.29,308v49.84a.79.79,0,0,0,1.12.77l14.93-8.06a9.58,9.58,0,0,0,4.79-8.49V292.3a.79.79,0,0,0-1.12-.78l-15,8.08A9.51,9.51,0,0,0,233.29,308Z" transform="translate(-148.33 -191.09)"/><path class="cls-2" d="M233.29,208.18V258a.79.79,0,0,0,1.12.78l14.93-8.06a9.58,9.58,0,0,0,4.79-8.49V192.45a.78.78,0,0,0-1.12-.77l-15,8.08A9.51,9.51,0,0,0,233.29,208.18Z" transform="translate(-148.33 -191.09)"/><path class="cls-3" d="M193.53,274.38v49.83a.78.78,0,0,0,1.11.78l14.93-8.06a9.58,9.58,0,0,0,4.79-8.49V258.65a.78.78,0,0,0-1.11-.77l-15,8.08A9.5,9.5,0,0,0,193.53,274.38Z" transform="translate(-148.33 -191.09)"/><path class="cls-4" d="M273.06,241.82v49.84a.78.78,0,0,0,1.12.77l14.93-8.06a9.58,9.58,0,0,0,4.79-8.49V226.1a.79.79,0,0,0-1.12-.78l-15,8.08A9.51,9.51,0,0,0,273.06,241.82Z" transform="translate(-148.33 -191.09)"/><text class="cls-5" transform="translate(0 221.03)">HAI<tspan class="cls-6" x="45.54" y="0"> </tspan><tspan x="49.13" y="0">HA</tspan><tspan class="cls-7" x="87.08" y="0"> </tspan><tspan x="92.1" y="0">DECOR</tspan></text></svg>